Coordinates
version=1
nRows=12
nColumns=42
inDegrees=yes

Units are S.I. units (second, meters, Newtons, ...)
If the header above contains a line with 'inDegrees', this indicates whether rotational values are in degrees (yes) or radians (no).

endheader
time	pelvis_tilt	pelvis_list	pelvis_rotation	pelvis_tx	pelvis_ty	pelvis_tz	hip_flexion_r	hip_adduction_r	hip_rotation_r	knee_angle_r	knee_adduction_r	knee_angle_r_beta	ankle_angle_r	subtalar_angle_r	mtp_angle_r	hip_flexion_l	hip_adduction_l	hip_rotation_l	knee_angle_l	knee_adduction_l	knee_angle_l_beta	ankle_angle_l	subtalar_angle_l	mtp_angle_l	lumbar_extension	lumbar_bending	lumbar_rotation	arm_flex_r	arm_add_r	arm_rot_r	elbow_flex_r	pro_sup_r	wrist_flex_r	wrist_dev_r	arm_flex_l	arm_add_l	arm_rot_l	elbow_flex_l	pro_sup_l	wrist_flex_l	wrist_dev_l
      0.29000000	      3.03837009	     -2.08230093	     -2.24292002	     -2.88024556	      0.82330269	      0.19740816	     -5.20082738	      6.58426385	    -39.14298360	     30.79398770	    -24.51343982	      0.53745648	     30.96880915	     34.99549434	     -9.32171977	     36.05458157	      0.89283081	    -16.10148724	     26.03845155	    -12.07302298	      0.45445671	      6.39064321	      9.92689298	     -9.32171977	    -22.42616158	      0.90373505	      7.51002697	     23.40505225	    -17.87081168	     11.93637437	     47.29298029	     90.00000001	      0.00000000	      0.00000000	     -6.82264577	    -10.01013325	      5.24498995	     28.02864363	     90.00000001	      0.00000000	      0.00000000
      0.30000000	      2.98875068	     -1.75541355	     -2.23668220	     -2.86703097	      0.82239135	      0.19599317	     -5.52598637	      5.82751060	    -39.15492895	     31.90625630	    -24.86554921	      0.55686922	     29.90912640	     34.99781137	     -9.28096998	     36.20725316	      1.55832664	    -15.66170564	     27.65370745	    -12.42903591	      0.48264825	      6.03097107	      9.07538561	     -9.28096998	    -22.26920233	      0.44988021	      7.47032313	     22.88055092	    -17.70250792	     11.59998352	     47.08015268	     90.00000001	      0.00000000	      0.00000000	     -6.64578207	    -10.08589885	      5.57472516	     27.81052558	     90.00000001	      0.00000000	      0.00000000
      0.31000000	      2.93773131	     -1.35251160	     -2.11951150	     -2.85395790	      0.82194186	      0.19437039	     -5.76756559	      5.03414086	    -39.10070102	     33.10117929	    -25.20561486	      0.57772456	     28.54200080	     34.57650057	     -9.13895607	     36.15019108	      2.54327725	    -13.64110375	     29.31914492	    -12.22217100	      0.51171561	      4.96138646	      5.15416092	     -9.13895607	    -22.16003511	     -0.05054590	      7.35888144	     22.20534898	    -17.22735257	     10.19346186	     46.85279199	     90.00000001	      0.00000000	      0.00000000	     -6.27646489	    -10.32102981	      6.78451537	     27.40629032	     90.00000001	      0.00000000	      0.00000000
      0.32000000	      3.00831905	     -0.90451764	     -2.02476461	     -2.84069368	      0.82184201	      0.19269362	     -6.05901995	      4.10468576	    -39.08003741	     34.46108420	    -25.52974487	      0.60145938	     27.10878923	     34.54223333	     -9.11948888	     36.16362165	      3.34303910	    -13.21510076	     31.18234139	    -12.45450795	      0.54423453	      5.02470350	      4.58651958	     -9.11948888	    -22.17214969	     -0.60936179	      7.17491727	     21.60018845	    -17.07236218	     10.10412886	     46.61478878	     90.00000001	      0.00000000	      0.00000000	     -6.03328895	    -10.44349615	      6.92694728	     27.42240740	     90.00000001	      0.00000000	      0.00000000
      0.33000000	      2.86870847	     -0.38740251	     -1.82098086	     -2.82778241	      0.82194184	      0.19090533	     -5.90461587	      3.22235851	    -39.00961626	     36.04620722	    -25.98452103	      0.62912500	     24.72186667	     33.39571666	     -8.97362035	     36.11818141	      4.49809387	    -10.86302703	     32.94438161	    -11.88324266	      0.57498793	      4.13209208	     -0.54486780	     -8.97362035	    -21.97498008	     -1.22771877	      6.94295617	     20.85971642	    -16.59729324	      8.86747899	     46.20969590	     90.00000001	      0.00000000	      0.00000000	     -5.52804387	    -10.79149927	      8.24807606	     27.16147939	     90.00000001	      0.00000000	      0.00000000
      0.34000000	      2.91204060	      0.07045458	     -1.62520411	     -2.81468286	      0.82253849	      0.18913232	     -5.86911559	      2.36551035	    -39.01161466	     37.69322596	    -26.45751580	      0.65787090	     21.95690584	     32.68058993	     -8.93360467	     35.97605679	      5.34138566	    -10.16023541	     34.65317456	    -11.78998771	      0.60481199	      4.63879521	     -1.75665914	     -8.93360467	    -21.97184579	     -1.76454130	      6.70995498	     20.13577932	    -16.40854234	      8.68797678	     45.83405624	     90.00000001	      0.00000000	      0.00000000	     -5.08510575	    -10.94285396	      8.58921987	     27.15186753	     90.00000001	      0.00000000	      0.00000000
      0.35000000	      2.89973238	      0.54813926	     -1.33193101	     -2.80189419	      0.82346264	      0.18724399	     -5.57178024	      1.52030945	    -38.91278450	     39.67131220	    -26.87424772	      0.69239502	     18.77584496	     30.57150907	     -8.85573567	     35.67366416	      6.31514910	     -8.68943363	     36.11298621	    -11.27807061	      0.63029051	      4.66520703	     -4.52506269	     -8.85573567	    -21.93901332	     -2.30022532	      6.39321235	     19.47356873	    -16.08149410	      8.15731804	     45.29629651	     90.00000001	      0.00000000	      0.00000000	     -4.43141478	    -11.23039407	      9.40876400	     26.98081279	     90.00000001	      0.00000000	      0.00000000
      0.36000000	      2.85391987	      1.05940577	     -1.13239569	     -2.78917638	      0.82457903	      0.18528200	     -4.99677276	      0.44941804	    -38.94357137	     41.97348658	    -27.32813112	      0.73257554	     15.91226421	     29.92880200	     -8.83842730	     35.31810822	      7.16893227	     -8.48134579	     37.16607516	    -11.23584059	      0.64867038	      5.43483553	     -5.19995899	     -8.83842730	    -21.86127889	     -2.85023070	      6.14095866	     18.71259215	    -15.95315303	      8.10475925	     44.85435244	     90.00000001	      0.00000000	      0.00000000	     -3.83971628	    -11.34713198	      9.60955918	     27.10846262	     90.00000001	      0.00000000	      0.00000000
      0.37000000	      2.82173395	      1.54648016	     -0.87570140	     -2.77671118	      0.82597777	      0.18325134	     -4.27352546	     -0.58033361	    -39.04399729	     44.39456682	    -27.83039584	      0.77483136	     12.61076709	     28.62161457	     -8.82491487	     34.81341095	      7.96838484	     -8.28609569	     37.98790040	    -11.09584181	      0.66301394	      6.20682408	     -5.76233652	     -8.82491487	    -21.81087388	     -3.34574404	      5.90494181	     18.02652105	    -15.87565362	      8.05619538	     44.33542439	     90.00000001	      0.00000000	      0.00000000	     -3.05105554	    -11.50761971	      9.80447681	     27.26393766	     90.00000001	      0.00000000	      0.00000000
      0.38000000	      2.58304597	      1.76370121	     -0.52875596	     -2.76464471	      0.82761604	      0.18141350	     -3.05051742	     -0.94628976	    -38.77980351	     46.95978439	    -28.42111260	      0.81960285	      7.25874755	     22.36699034	     -8.77339627	     34.27703280	      8.56657521	     -7.50154585	     38.38964686	    -10.79782225	      0.67002574	      6.87952510	     -7.06430021	     -8.77339627	    -21.53912185	     -3.50930749	      5.60893443	     17.42197277	    -15.48016266	      7.83314290	     43.26158067	     90.00000001	      0.00000000	      0.00000000	     -2.26068199	    -11.72254975	     10.71615098	     27.13561216	     90.00000001	      0.00000000	      0.00000000
      0.39000000	      2.33428377	      2.10324116	     -0.29266281	     -2.75279845	      0.82931202	      0.17944309	     -1.59483366	     -1.73537408	    -38.59890619	     49.87346982	    -28.88355026	      0.87045626	      3.36501128	     18.25263375	     -8.72416959	     33.68576997	      9.19452533	     -7.50115436	     38.49578451	    -10.80824143	      0.67187819	      7.64121343	     -7.38045188	     -8.72416959	    -21.25600992	     -3.80029695	      5.40337303	     16.81518321	    -15.23253541	      7.74452908	     42.37802719	     90.00000001	      0.00000000	      0.00000000	     -1.46308974	    -11.92500142	     11.54972774	     27.36274758	     90.00000001	      0.00000000	      0.00000000
      0.40000000	      2.10697520	      2.38651779	     -0.07961719	     -2.74115813	      0.83123159	      0.17754427	      0.00642042	     -2.46754953	    -38.42801278	     52.84173715	    -29.32476386	      0.92226230	     -0.21384135	     13.94178355	     -8.67459838	     32.98798852	      9.68085257	     -7.78037789	     38.39538205	    -10.87861889	      0.67012583	      8.58615976	     -7.02895263	     -8.67459838	    -21.01332304	     -4.00401199	      5.21899498	     16.26168057	    -15.07293368	      7.77415130	     41.45988599	     90.00000001	      0.00000000	      0.00000000	     -0.63154281	    -12.12382262	     12.35770349	     27.73693424	     90.00000001	      0.00000000	      0.00000000
